<svg width="47" height="50" viewBox="0 0 47 50" fill="none" xmlns="http://www.w3.org/2000/svg">
<path d="M16.4345 46.9552V39.2881C16.4345 37.3452 17.9977 35.7667 19.934 35.7545H27.0438C28.9888 35.7545 30.5655 37.3365 30.5655 39.2881V46.933C30.5655 48.6181 31.9205 49.9876 33.5999 49.9999H38.4505C40.7159 50.0057 42.8906 49.1069 44.4946 47.5017C46.0986 45.8965 47 43.7168 47 41.4437V19.6646C47 17.8284 46.1888 16.0868 44.7851 14.9087L28.3063 1.68567C25.4258 -0.627193 21.3117 -0.552479 18.5165 1.86346L2.39208 14.9087C0.922043 16.052 0.0434188 17.7989 0 19.6646V41.4215C0 46.1592 3.82773 49.9999 8.54948 49.9999H13.2893C14.098 50.0058 14.8755 49.6876 15.4493 49.116C16.0232 48.5444 16.3459 47.7666 16.3459 46.9552H16.4345Z" fill="white"/>
</svg>
