<svg width="72" height="18" viewBox="0 0 72 18" fill="none" xmlns="http://www.w3.org/2000/svg">
<path d="M72 9.05591L57 0.395659L57 17.7162L72 9.05591ZM-1.36108e-07 10.5559L3.08571 10.5559L3.08571 7.55591L1.36108e-07 7.55591L-1.36108e-07 10.5559ZM11.3143 10.5559L17.4857 10.5559L17.4857 7.55591L11.3143 7.55591L11.3143 10.5559ZM25.7143 10.5559L31.8857 10.5559L31.8857 7.55591L25.7143 7.55591L25.7143 10.5559ZM40.1143 10.5559L46.2857 10.5559L46.2857 7.55591L40.1143 7.55591L40.1143 10.5559ZM54.5143 10.5559L60.6857 10.5559L60.6857 7.55591L54.5143 7.55591L54.5143 10.5559Z" fill="#2FAFDC"/>
</svg>
