<svg width="37" height="54" viewBox="0 0 37 54" fill="none" xmlns="http://www.w3.org/2000/svg">
<path fill-rule="evenodd" clip-rule="evenodd" d="M19.2069 53.9208C19.879 53.7897 20.4954 53.4688 20.9774 52.999C20.9818 52.9946 20.9863 52.9902 20.9907 52.9857L35.6234 38.8878C36.2708 38.264 36.6345 37.418 36.6345 36.5359C36.6345 35.6538 36.2708 34.8078 35.6234 34.1841C34.976 33.5604 34.098 33.2099 33.1824 33.2099C32.2668 33.2099 31.3887 33.5604 30.7413 34.1841L21.9538 42.6505L21.9538 3.61051C21.8867 2.77531 21.495 1.99525 20.8569 1.42621C20.2189 0.857177 19.3814 0.541073 18.5119 0.541072C17.6425 0.541072 16.805 0.857175 16.1669 1.42621C15.5289 1.99525 15.1371 2.77531 15.0701 3.61051L15.0701 42.6039L6.33092 34.1841C5.68352 33.5604 4.80545 33.2099 3.88988 33.2099C2.97431 33.2099 2.09624 33.5604 1.44884 34.1841C0.801435 34.8078 0.437727 35.6538 0.437728 36.5359C0.437728 37.418 0.801435 38.264 1.44884 38.8878L15.8323 52.7456C16.1949 53.1799 16.6661 53.5207 17.2038 53.7348C17.8375 53.9871 18.5349 54.0518 19.2069 53.9208Z" fill="#2FAFDC"/>
</svg>
