<svg width="75" height="44" viewBox="0 0 75 44" fill="none" xmlns="http://www.w3.org/2000/svg">
<path d="M74.7001 3.10265C74.3197 2.23986 73.5917 1.55423 72.6757 1.19593C72.225 1.015 71.741 0.919031 71.2511 0.913452H52.5065C51.5122 0.913452 50.5587 1.28546 49.8556 1.94765C49.1526 2.60983 48.7576 3.50794 48.7576 4.44441C48.7576 5.38088 49.1526 6.27899 49.8556 6.94118C50.5587 7.60336 51.5122 7.97537 52.5065 7.97537H62.2162L41.2598 27.7134L28.9259 16.0613C28.5773 15.7303 28.1627 15.4676 27.7059 15.2884C27.249 15.1091 26.759 15.0168 26.2641 15.0168C25.7692 15.0168 25.2792 15.1091 24.8224 15.2884C24.3655 15.4676 23.9509 15.7303 23.6024 16.0613L1.10892 37.247C0.757542 37.5753 0.478645 37.9658 0.288317 38.3961C0.09799 38.8264 0 39.2879 0 39.754C0 40.2201 0.09799 40.6817 0.288317 41.1119C0.478645 41.5422 0.757542 41.9327 1.10892 42.261C1.45743 42.5919 1.87207 42.8546 2.32891 43.0339C2.78575 43.2132 3.27575 43.3054 3.77065 43.3054C4.26555 43.3054 4.75555 43.2132 5.21239 43.0339C5.66923 42.8546 6.08387 42.5919 6.43238 42.261L26.2641 23.5469L38.5981 35.1991C38.9466 35.53 39.3612 35.7927 39.818 35.972C40.2749 36.1512 40.7649 36.2435 41.2598 36.2435C41.7547 36.2435 42.2447 36.1512 42.7015 35.972C43.1584 35.7927 43.573 35.53 43.9215 35.1991L67.5022 12.954V22.0992C67.5022 23.0357 67.8971 23.9338 68.6002 24.596C69.3033 25.2582 70.2568 25.6302 71.2511 25.6302C72.2454 25.6302 73.1989 25.2582 73.902 24.596C74.605 23.9338 75 23.0357 75 22.0992V4.44441C74.9941 3.983 74.8922 3.52715 74.7001 3.10265Z" fill="#2FAFDC"/>
</svg>
