<svg width="74" height="72" viewBox="0 0 74 72" fill="none" xmlns="http://www.w3.org/2000/svg">
<path d="M36.8348 0.31189C29.5495 0.31189 22.4279 2.39326 16.3705 6.2928C10.313 10.1923 5.59183 15.7349 2.80389 22.2196C0.0159599 28.7043 -0.713491 35.8398 0.707786 42.724C2.12906 49.6081 5.63723 55.9315 10.7887 60.8947C15.9401 65.8579 22.5034 69.2378 29.6487 70.6072C36.7939 71.9765 44.2001 71.2737 50.9308 68.5877C57.6615 65.9016 63.4143 61.353 67.4617 55.5169C71.5092 49.6808 73.6695 42.8195 73.6695 35.8005C73.6695 31.1401 72.7167 26.5253 70.8656 22.2196C69.0145 17.9139 66.3013 14.0017 62.8808 10.7063C59.4604 7.41084 55.3998 4.79677 50.9308 3.0133C46.4618 1.22983 41.672 0.31189 36.8348 0.31189ZM52.6737 27.3187L35.8402 48.6119C35.4971 49.0413 35.0564 49.3894 34.552 49.6293C34.0476 49.8692 33.4928 49.9946 32.9303 49.9959C32.3708 49.9988 31.818 49.8789 31.3137 49.6452C30.8095 49.4116 30.3672 49.0703 30.0203 48.6474L21.0327 37.6104C20.7352 37.2422 20.5159 36.8212 20.3873 36.3714C20.2586 35.9215 20.2233 35.4517 20.2831 34.9887C20.343 34.5257 20.4969 34.0786 20.7361 33.6729C20.9753 33.2672 21.2951 32.9109 21.6773 32.6242C22.449 32.0454 23.4279 31.7856 24.3984 31.9021C24.879 31.9598 25.343 32.1081 25.7641 32.3385C26.1852 32.569 26.5551 32.8771 26.8525 33.2453L32.8566 40.6269L46.7801 22.8826C47.0752 22.5098 47.4436 22.1966 47.8643 21.9609C48.285 21.7253 48.7498 21.5718 49.232 21.5092C49.7143 21.4465 50.2047 21.4761 50.6751 21.596C51.1456 21.716 51.5869 21.9241 51.9738 22.2084C52.3608 22.4926 52.6859 22.8476 52.9305 23.2529C53.1751 23.6582 53.3344 24.106 53.3994 24.5706C53.4644 25.0353 53.4338 25.5077 53.3092 25.961C53.1847 26.4142 52.9688 26.8394 52.6737 27.2122V27.3187Z" fill="#2FAFDC"/>
</svg>
